<?xml version="1.0" encoding="UTF-8" standalone="no"?>
<svg
   width="40.013939mm"
   height="12.159408mm"
   viewBox="0 0 40.013939 12.159408"
   version="1.1"
   id="svg1"
   xmlns="http://www.w3.org/2000/svg"
   xmlns:svg="http://www.w3.org/2000/svg">
  <g
     id="Layer"
     transform="translate(-33.114983,-116.50609)">
    <path
       id="Symbol"
       style="fill:#ff6600;"
       d="M 39.150274 118.78192 C 39.012359 118.78137 38.866323 118.79888 38.713608 118.8398 C 37.491885 119.16716 37.364853 120.56992 37.364853 120.56992 C 37.295575 120.92309 37.374249 121.29559 37.519365 121.66598 L 35.594418 122.35948 L 36.425375 122.76359 L 36.002662 123.57439 L 38.080055 122.76514 C 38.370099 123.27676 38.62485 123.74049 38.573565 124.08082 C 38.573565 124.08082 38.54308 124.65985 38.024761 125.04097 C 37.506443 125.42209 36.812948 125.87968 36.812948 125.87968 L 38.010291 126.2688 C 38.010291 126.2688 38.517467 126.05147 39.041236 125.57117 C 39.644416 125.01806 39.735768 124.18831 39.735768 124.18831 C 39.847698 123.54407 39.540523 122.90767 39.212802 122.32434 L 40.671628 121.7559 L 41.079872 120.84846 L 39.992599 120.77456 L 38.653663 121.25722 C 38.573312 121.04131 38.538755 120.84093 38.584417 120.66139 C 38.584417 120.66139 38.660962 120.06943 39.072242 119.89916 C 39.5069 119.71921 40.70315 119.67851 40.70315 119.67851 C 40.70315 119.67851 40.115676 118.78576 39.150274 118.78192 z " />
    <path
       id="Text"
       style="fill:#2b1100;"
       d="m 46.199219,122.29473 v 0.60289 h -1.977486 v 1.92581 h -0.754476 v -4.51308 h 3.048911 v 0.6029 h -2.294435 v 1.38148 z m 1.657092,-2.30821 v 4.83691 H 47.10528 v -4.83691 z m 1.791451,4.90926 q -0.52021,0 -0.802708,-0.26527 -0.282498,-0.26872 -0.282498,-0.75103 0,-0.48576 0.382406,-0.75448 0.382406,-0.26872 1.085206,-0.26872 h 0.585666 V 122.56 q 0,-0.26527 -0.155029,-0.41341 -0.15503,-0.14814 -0.430637,-0.14814 -0.272163,0 -0.427193,0.12403 -0.151584,0.12057 -0.151584,0.32039 h -0.726916 l -0.0034,-0.0172 q -0.02067,-0.40996 0.361736,-0.70969 0.382405,-0.30316 0.981852,-0.30316 0.599447,0 0.950847,0.30316 0.3514,0.29973 0.3514,0.85094 v 1.49173 q 0,0.41341 0.120579,0.7717 l -0.764812,0.003 q -0.08268,-0.26183 -0.103353,-0.49265 -0.165364,0.24805 -0.416857,0.40308 -0.251492,0.15158 -0.55466,0.15158 z m -0.334175,-1.02319 h 0.0034 q 0,0.19637 0.124024,0.30661 0.127468,0.11024 0.382406,0.11024 0.254937,0 0.482313,-0.1378 0.227377,-0.13781 0.306614,-0.32729 v -0.49609 h -0.599447 q -0.316949,0 -0.509874,0.15848 -0.189481,0.15502 -0.189481,0.38585 z m 4.123782,0.46508 q 0.292833,0 0.447863,-0.11024 0.158474,-0.11024 0.158474,-0.29628 0,-0.18603 -0.155029,-0.29972 -0.151584,-0.11369 -0.547771,-0.19982 -0.620117,-0.13436 -0.919841,-0.36862 -0.299723,-0.23771 -0.299723,-0.65113 0,-0.41341 0.35829,-0.70624 0.361735,-0.29283 0.954292,-0.29283 0.596002,0 0.957737,0.29972 0.36518,0.29628 0.347955,0.75103 l -0.0069,0.0207 H 54.0127 q 0,-0.21704 -0.161919,-0.36173 -0.16192,-0.1447 -0.430637,-0.1447 -0.265273,0 -0.413412,0.12058 -0.144694,0.11713 -0.144694,0.30317 0,0.18259 0.137804,0.2825 0.141249,0.0999 0.544325,0.17914 0.644233,0.13436 0.943957,0.37552 0.299723,0.23771 0.299723,0.64079 0,0.45475 -0.37207,0.73725 -0.372071,0.27905 -0.999079,0.27905 -0.627007,0 -1.012858,-0.32384 -0.385851,-0.32384 -0.368626,-0.77859 l 0.0069,-0.0207 h 0.699355 q 0.01378,0.2825 0.199816,0.4203 0.18948,0.1378 0.492649,0.1378 z m 2.769859,-2.43568 q 0.35829,-0.49609 0.923286,-0.49609 0.564996,0 0.854385,0.34106 0.292833,0.34107 0.292833,1.03353 v 2.04294 h -0.751031 v -2.04983 q 0,-0.39274 -0.15503,-0.57189 -0.155029,-0.17914 -0.478868,-0.17914 -0.437528,0 -0.68902,0.34451 v 2.45635 h -0.751031 v -4.83691 h 0.751031 z m 3.462323,1.43316 v 0.0655 q 0,0.48576 0.18259,0.75792 0.186035,0.27216 0.561551,0.27216 0.444418,0 0.654569,-0.35829 v -1.56063 q -0.217042,-0.35829 -0.647679,-0.35829 -0.37207,0 -0.561551,0.3204 -0.18948,0.31695 -0.18948,0.86127 z m -0.751031,0.0655 v -0.0655 q 0,-0.81649 0.344509,-1.2988 0.347955,-0.48576 0.940512,-0.48576 0.592557,0 0.923286,0.46853 l 0.08613,-0.40652 h 0.609782 v 4.64399 h -0.754476 v -1.60541 q -0.306614,0.37896 -0.844049,0.37896 -0.613228,0 -0.961183,-0.44097 -0.344509,-0.44442 -0.344509,-1.18856 z m 4.864477,1.49517 q -0.554661,0 -0.850939,-0.34795 -0.296278,-0.3514 -0.296278,-1.06454 v -2.00849 h 0.751031 v 2.01194 q 0,0.43408 0.134359,0.61667 0.137804,0.17914 0.437527,0.17914 0.5271,0 0.751031,-0.3824 v -2.42535 h 0.754477 v 3.35552 h -0.658014 l -0.06546,-0.4892 q -0.334174,0.55466 -0.957737,0.55466 z m 3.269399,-3.42787 v 3.35552 h -0.751031 v -3.35552 z m 0,-1.48139 v 0.66145 h -0.751031 v -0.66145 z m 3.438206,4.23402 v 0.60289 H 67.76553 v -0.49265 l 1.691543,-2.25309 h -1.660537 v -0.60978 h 2.611384 v 0.47887 l -1.712214,2.27376 z" />
  </g>
</svg>
