<?xml version="1.0" encoding="UTF-8" standalone="no"?>
<svg
   width="24"
   height="24"
   viewBox="0 0 6.3499999 6.35"
   version="1.1"
   id="svg1"
   xmlns="http://www.w3.org/2000/svg"
   xmlns:svg="http://www.w3.org/2000/svg">
  <g
     id="Layer"
     transform="translate(-21.6924,-32.689667)">
    <path
       id="Symbol"
       style="fill:#ffffff;"
       d="m 25.49958,32.954259 c -0.107224,-4.27e-4 -0.220762,0.01322 -0.339493,0.04502 -0.949851,0.254511 -1.048614,1.345112 -1.048614,1.345112 -0.05386,0.274578 0.0073,0.564185 0.120128,0.852151 l -1.496584,0.539174 0.646042,0.314183 -0.328645,0.630371 1.615106,-0.629166 c 0.2255,0.397768 0.42356,0.758303 0.383688,1.022899 0,0 -0.0237,0.450177 -0.426678,0.746485 -0.402975,0.296309 -0.942145,0.65207 -0.942145,0.65207 l 0.930895,0.302529 c 0,0 0.394313,-0.168967 0.801527,-0.542385 0.468953,-0.430025 0.539976,-1.075129 0.539976,-1.075129 0.08702,-0.500876 -0.151797,-0.995657 -0.406589,-1.449177 l 1.13419,-0.441944 0.317397,-0.705505 -0.84532,-0.05745 -1.04098,0.375253 c -0.06247,-0.167863 -0.08934,-0.323652 -0.05384,-0.463239 0,0 0.05951,-0.46023 0.379268,-0.592609 0.337933,-0.139905 1.267978,-0.171548 1.267978,-0.171548 0,0 -0.456742,-0.694085 -1.207311,-0.69707 z" />
  </g>
</svg>
